# File created by Blade
# Date/Time:  Wed Jan 21 17:34:04 2015
# Frame Rate: 120.000 fps
#------------------------------------------------------
:FULLY-SPECIFIED
:DEGREES
814
root 19.694372 5.489179 -20.329396 -171.251692 -31.696884 -143.385288
Spine -16.012654 -7.602172 41.266329
Head -3.051439 -13.806147 -0.741022
LeftShoulder -11.248609 -14.744971 5.887946
LeftArm -20.477673 5.991184 -83.560541
LeftForeArm 6.660422 -0.000000 -2.483481
LeftHand 9.450308 -0.000000 -2.848607
LeftHandThumb1 -26.253704 0.000000 33.147579
RightShoulder -30.285294 -16.593738 11.209858
RightArm -43.018744 73.748069 29.174329
RightForeArm 14.301424 -0.000000 116.686082
RightHand -5.393570 0.000000 -15.293800
RightHandThumb1 -24.326973 -0.000000 -32.862282
LeftUpLeg -99.145511 -23.967084 -53.423165
LeftLeg 136.746062 -0.000000 -0.000000
LeftFoot 29.317696 21.496066 3.401110
LeftToeBase 24.179409 -0.000000 -0.000000
RightUpLeg 15.861635 38.662037 -15.336641
RightLeg 131.332612 -0.000000 -0.000000
RightFoot 43.055711 -21.025958 -18.136715
RightToeBase 18.669481 -0.000000 -0.000000
815
root 19.692241 5.487497 -20.324205 -171.309584 -31.658080 -143.371227
Spine -16.005252 -7.627248 41.340161
Head -3.411723 -13.641441 -0.795247
LeftShoulder -11.204313 -14.747685 5.819746
LeftArm -20.536117 5.972111 -83.570351
LeftForeArm 6.683027 0.000000 -2.456577
LeftHand 9.421623 -0.000000 -2.709961
LeftHandThumb1 -26.253704 0.000000 33.147579
RightShoulder -30.277462 -16.544117 11.159713
RightArm -42.817034 73.664645 29.238846
RightForeArm 14.003125 -0.000000 116.807810
RightHand -5.436901 -0.000000 -15.182181
RightHandThumb1 -24.326973 -0.000000 -32.862282
LeftUpLeg -99.136106 -23.912542 -53.432854
LeftLeg 136.723162 -0.000000 -0.000000
LeftFoot 29.321539 21.567028 3.332493
LeftToeBase 24.161819 -0.000000 -0.000000
RightUpLeg 15.888138 38.813076 -15.311102
RightLeg 131.370869 -0.000000 -0.000000
RightFoot 43.135609 -21.086068 -18.034777
RightToeBase 18.479259 -0.000000 -0.000000
816
root 19.690306 5.486562 -20.319622 -171.387453 -31.621556 -143.344827
Spine -15.973829 -7.672277 41.421655
Head -3.798064 -13.525214 -0.845348
LeftShoulder -11.168607 -14.782745 5.753569
LeftArm -20.615112 5.932412 -83.557440
LeftForeArm 6.583729 0.000000 -2.436382
LeftHand 9.440729 -0.000000 -2.641049
LeftHandThumb1 -26.253704 0.000000 33.147579
RightShoulder -30.229972 -16.468052 11.100626
RightArm -42.749328 73.576882 29.161293
RightForeArm 13.679830 -0.000000 116.934721
RightHand -5.388174 -0.000000 -14.937812
RightHandThumb1 -24.326973 -0.000000 -32.862282
LeftUpLeg -99.113060 -23.849608 -53.440475
LeftLeg 136.713818 -0.000000 -0.000000
LeftFoot 29.315087 21.596584 3.330773
LeftToeBase 24.089709 -0.000000 -0.000000
RightUpLeg 15.938203 38.979051 -15.262247
RightLeg 131.420458 -0.000000 -0.000000
RightFoot 43.096903 -20.984926 -18.025479
RightToeBase 18.669922 -0.000000 -0.000000
817
root 19.688776 5.485509 -20.315727 -171.458540 -31.594168 -143.307327
Spine -15.975480 -7.722706 41.511096
Head -4.141512 -13.363701 -0.867457
LeftShoulder -11.112893 -14.814238 5.704775
LeftArm -20.703158 5.762933 -83.510500
LeftForeArm 6.593824 -0.000000 -2.446114
LeftHand 9.469208 -0.000000 -2.597501
LeftHandThumb1 -26.253704 0.000000 33.147579
RightShoulder -30.250080 -16.531051 11.102809
RightArm -42.080130 73.601906 29.666444
RightForeArm 13.329068 -0.000000 117.090762
RightHand -5.427981 0.000000 -14.805431
RightHandThumb1 -24.326973 -0.000000 -32.862282
LeftUpLeg -99.101243 -23.804648 -53.426233
LeftLeg 136.704405 -0.000000 -0.000000
LeftFoot 29.319874 21.656756 3.264683
LeftToeBase 23.954247 -0.000000 -0.000000
RightUpLeg 15.981072 39.139502 -15.204370
RightLeg 131.466075 -0.000000 -0.000000
RightFoot 43.082856 -20.869608 -18.093542
RightToeBase 18.916578 -0.000000 -0.000000
818
root 19.687763 5.485155 -20.312780 -171.516049 -31.571811 -143.278679
Spine -15.988345 -7.774515 41.596180
Head -4.523717 -13.193158 -0.885188
LeftShoulder -11.073292 -14.862871 5.657447
LeftArm -20.811859 5.754941 -83.521384
LeftForeArm 6.480604 -0.000000 -2.436974
LeftHand 9.493748 -0.000000 -2.603683
LeftHandThumb1 -26.253704 0.000000 33.147579
RightShoulder -30.227481 -16.535878 11.058964
RightArm -41.660695 73.563620 29.960123
RightForeArm 12.949195 0.000000 117.239474
RightHand -5.469919 0.000000 -14.727645
RightHandThumb1 -24.326973 -0.000000 -32.862282
LeftUpLeg -99.087937 -23.761227 -53.413767
LeftLeg 136.698678 -0.000000 -0.000000
LeftFoot 29.308034 21.647809 3.291455
LeftToeBase 24.064017 -0.000000 -0.000000
RightUpLeg 16.007287 39.277044 -15.153917
RightLeg 131.479199 -0.000000 -0.000000
RightFoot 43.259492 -21.043845 -18.017212
RightToeBase 18.606142 -0.000000 -0.000000
819
root 19.686809 5.486087 -20.310518 -171.566247 -31.546331 -143.250750
Spine -16.015251 -7.811008 41.675725
Head -4.896460 -13.054755 -0.903238
LeftShoulder -11.021853 -14.899246 5.604630
LeftArm -20.892869 5.736182 -83.513651
LeftForeArm 6.428269 0.000000 -2.477154
LeftHand 9.486811 -0.000000 -2.586077
LeftHandThumb1 -26.253704 0.000000 33.147579
RightShoulder -30.252615 -16.556424 11.022262
RightArm -40.993910 73.541288 30.509712
RightForeArm 12.522174 -0.000000 117.386371
RightHand -5.479715 -0.000000 -14.619307
RightHandThumb1 -24.326973 -0.000000 -32.862282
LeftUpLeg -99.085019 -23.716131 -53.396143
LeftLeg 136.686611 -0.000000 -0.000000
LeftFoot 29.318984 21.687774 3.243346
LeftToeBase 24.045342 -0.000000 -0.000000
RightUpLeg 16.036435 39.435975 -15.104135
RightLeg 131.512738 -0.000000 -0.000000
RightFoot 43.304207 -21.055449 -18.039731
RightToeBase 18.556538 -0.000000 -0.000000
820
root 19.687030 5.487153 -20.308303 -171.613444 -31.526107 -143.219097
Spine -16.046809 -7.848203 41.748363
Head -5.232320 -12.895130 -0.898578
LeftShoulder -10.957247 -14.948724 5.571304
LeftArm -20.988582 5.712018 -83.510618
LeftForeArm 6.357282 0.000000 -2.509602
LeftHand 9.500565 0.000000 -2.648101
LeftHandThumb1 -26.253704 0.000000 33.147579
RightShoulder -30.192991 -16.454322 10.937804
RightArm -40.938825 73.390289 30.429253
RightForeArm 12.174725 -0.000000 117.525587
RightHand -5.471495 -0.000000 -14.455697
RightHandThumb1 -24.326973 -0.000000 -32.862282
LeftUpLeg -99.083187 -23.679859 -53.374284
LeftLeg 136.690401 -0.000000 -0.000000
LeftFoot 29.305756 21.660133 3.270307
LeftToeBase 24.046236 -0.000000 -0.000000
RightUpLeg 16.071592 39.583113 -15.039832
RightLeg 131.555667 -0.000000 -0.000000
RightFoot 43.303943 -20.989045 -18.155738
RightToeBase 18.768177 -0.000000 -0.000000
821
root 19.688148 5.489428 -20.307165 -171.650898 -31.508766 -143.188926
Spine -16.092547 -7.872762 41.804712
Head -5.605040 -12.787656 -0.860720
LeftShoulder -10.887112 -14.976221 5.536948
LeftArm -21.048596 5.618401 -83.463068
LeftForeArm 6.386565 -0.000000 -2.565977
LeftHand 9.507172 0.000000 -2.769605
LeftHandThumb1 -26.253704 0.000000 33.147579
RightShoulder -30.101861 -16.350977 10.881116
RightArm -41.147404 73.253936 30.055636
RightForeArm 11.875546 -0.000000 117.652690
RightHand -5.470493 -0.000000 -14.300457
RightHandThumb1 -24.326973 -0.000000 -32.862282
LeftUpLeg -99.093883 -23.647113 -53.347584
LeftLeg 136.703820 -0.000000 -0.000000
LeftFoot 29.267091 21.645369 3.234060
LeftToeBase 24.004688 -0.000000 -0.000000
RightUpLeg 16.077319 39.714247 -14.992166
RightLeg 131.588446 -0.000000 -0.000000
RightFoot 43.433274 -21.040565 -18.222801
RightToeBase 18.587579 -0.000000 -0.000000
